<mxfile host="app.diagrams.net" modified="2023-03-25T16:53:12.009Z" agent="5.0 (Windows NT 10.0; WOW64) AppleWebKit/537.36 (KHTML, like Gecko) Chrome/111.0.0.0 Safari/537.36" etag="r-AbPCMWF0c_6QH7KQiZ" version="21.0.6" type="github">
  <diagram name="Page-1" id="r5idTmQtbfY4udptcNlb">
    <mxGraphModel dx="1674" dy="704" grid="1" gridSize="10" guides="1" tooltips="1" connect="1" arrows="1" fold="1" page="1" pageScale="1" pageWidth="850" pageHeight="1100" math="0" shadow="0">
      <root>
        <mxCell id="0" />
        <mxCell id="1" parent="0" />
        <mxCell id="eFXCQ_QI8-ovq_4J0zuW-1" value="user" style="shape=umlActor;verticalLabelPosition=bottom;verticalAlign=top;html=1;outlineConnect=0;" vertex="1" parent="1">
          <mxGeometry x="170" y="260" width="30" height="60" as="geometry" />
        </mxCell>
        <mxCell id="eFXCQ_QI8-ovq_4J0zuW-2" value="doctor" style="shape=umlActor;verticalLabelPosition=bottom;verticalAlign=top;html=1;outlineConnect=0;" vertex="1" parent="1">
          <mxGeometry x="550" y="460" width="30" height="60" as="geometry" />
        </mxCell>
        <mxCell id="eFXCQ_QI8-ovq_4J0zuW-3" value="" style="swimlane;startSize=0;" vertex="1" parent="1">
          <mxGeometry x="260" y="190" width="200" height="410" as="geometry" />
        </mxCell>
        <mxCell id="eFXCQ_QI8-ovq_4J0zuW-4" value="create patient" style="ellipse;whiteSpace=wrap;html=1;" vertex="1" parent="eFXCQ_QI8-ovq_4J0zuW-3">
          <mxGeometry x="40" y="10" width="120" height="60" as="geometry" />
        </mxCell>
        <mxCell id="eFXCQ_QI8-ovq_4J0zuW-5" value="show patients" style="ellipse;whiteSpace=wrap;html=1;" vertex="1" parent="eFXCQ_QI8-ovq_4J0zuW-3">
          <mxGeometry x="40" y="80" width="120" height="50" as="geometry" />
        </mxCell>
        <mxCell id="eFXCQ_QI8-ovq_4J0zuW-6" value="doctor details view" style="ellipse;whiteSpace=wrap;html=1;" vertex="1" parent="eFXCQ_QI8-ovq_4J0zuW-3">
          <mxGeometry x="40" y="140" width="120" height="50" as="geometry" />
        </mxCell>
        <mxCell id="eFXCQ_QI8-ovq_4J0zuW-7" value="delete patient" style="ellipse;whiteSpace=wrap;html=1;" vertex="1" parent="eFXCQ_QI8-ovq_4J0zuW-3">
          <mxGeometry x="40" y="210" width="120" height="50" as="geometry" />
        </mxCell>
        <mxCell id="eFXCQ_QI8-ovq_4J0zuW-21" value="user profile" style="ellipse;whiteSpace=wrap;html=1;" vertex="1" parent="eFXCQ_QI8-ovq_4J0zuW-3">
          <mxGeometry x="40" y="280" width="120" height="50" as="geometry" />
        </mxCell>
        <mxCell id="eFXCQ_QI8-ovq_4J0zuW-22" value="view doctors response" style="ellipse;whiteSpace=wrap;html=1;" vertex="1" parent="eFXCQ_QI8-ovq_4J0zuW-3">
          <mxGeometry x="40" y="350" width="120" height="50" as="geometry" />
        </mxCell>
        <mxCell id="eFXCQ_QI8-ovq_4J0zuW-8" value="database" style="shape=umlActor;verticalLabelPosition=bottom;verticalAlign=top;html=1;outlineConnect=0;" vertex="1" parent="1">
          <mxGeometry x="550" y="280" width="30" height="60" as="geometry" />
        </mxCell>
        <mxCell id="eFXCQ_QI8-ovq_4J0zuW-9" value="" style="endArrow=none;html=1;rounded=0;" edge="1" parent="1" target="eFXCQ_QI8-ovq_4J0zuW-4">
          <mxGeometry width="50" height="50" relative="1" as="geometry">
            <mxPoint x="200" y="280" as="sourcePoint" />
            <mxPoint x="260" y="210" as="targetPoint" />
          </mxGeometry>
        </mxCell>
        <mxCell id="eFXCQ_QI8-ovq_4J0zuW-11" value="" style="endArrow=none;html=1;rounded=0;exitX=1;exitY=0.6;exitDx=0;exitDy=0;exitPerimeter=0;entryX=0;entryY=0.3333333333333333;entryDx=0;entryDy=0;entryPerimeter=0;" edge="1" parent="1" source="eFXCQ_QI8-ovq_4J0zuW-4" target="eFXCQ_QI8-ovq_4J0zuW-8">
          <mxGeometry width="50" height="50" relative="1" as="geometry">
            <mxPoint x="480" y="410" as="sourcePoint" />
            <mxPoint x="530" y="360" as="targetPoint" />
          </mxGeometry>
        </mxCell>
        <mxCell id="eFXCQ_QI8-ovq_4J0zuW-12" value="" style="endArrow=none;html=1;rounded=0;entryX=0;entryY=0.5;entryDx=0;entryDy=0;" edge="1" parent="1" target="eFXCQ_QI8-ovq_4J0zuW-5">
          <mxGeometry width="50" height="50" relative="1" as="geometry">
            <mxPoint x="200" y="280" as="sourcePoint" />
            <mxPoint x="260" y="210" as="targetPoint" />
          </mxGeometry>
        </mxCell>
        <mxCell id="eFXCQ_QI8-ovq_4J0zuW-16" value="" style="endArrow=none;html=1;rounded=0;entryX=0;entryY=0.5;entryDx=0;entryDy=0;exitX=1;exitY=0.3333333333333333;exitDx=0;exitDy=0;exitPerimeter=0;" edge="1" parent="1" target="eFXCQ_QI8-ovq_4J0zuW-7" source="eFXCQ_QI8-ovq_4J0zuW-1">
          <mxGeometry width="50" height="50" relative="1" as="geometry">
            <mxPoint x="200" y="460" as="sourcePoint" />
            <mxPoint x="250" y="410" as="targetPoint" />
          </mxGeometry>
        </mxCell>
        <mxCell id="eFXCQ_QI8-ovq_4J0zuW-17" value="" style="endArrow=none;html=1;rounded=0;exitX=0;exitY=0.5;exitDx=0;exitDy=0;" edge="1" parent="1" source="eFXCQ_QI8-ovq_4J0zuW-7">
          <mxGeometry width="50" height="50" relative="1" as="geometry">
            <mxPoint x="160" y="330" as="sourcePoint" />
            <mxPoint x="200" y="280" as="targetPoint" />
          </mxGeometry>
        </mxCell>
        <mxCell id="eFXCQ_QI8-ovq_4J0zuW-18" value="" style="endArrow=none;html=1;rounded=0;" edge="1" parent="1">
          <mxGeometry width="50" height="50" relative="1" as="geometry">
            <mxPoint x="420" y="490" as="sourcePoint" />
            <mxPoint x="550" y="300" as="targetPoint" />
          </mxGeometry>
        </mxCell>
        <mxCell id="eFXCQ_QI8-ovq_4J0zuW-19" value="" style="endArrow=none;html=1;rounded=0;entryX=0;entryY=0.3333333333333333;entryDx=0;entryDy=0;entryPerimeter=0;exitX=1;exitY=0.5;exitDx=0;exitDy=0;" edge="1" parent="1" source="eFXCQ_QI8-ovq_4J0zuW-6" target="eFXCQ_QI8-ovq_4J0zuW-8">
          <mxGeometry width="50" height="50" relative="1" as="geometry">
            <mxPoint x="500" y="330" as="sourcePoint" />
            <mxPoint x="550" y="280" as="targetPoint" />
          </mxGeometry>
        </mxCell>
        <mxCell id="eFXCQ_QI8-ovq_4J0zuW-20" value="" style="endArrow=none;html=1;rounded=0;entryX=1;entryY=0.5;entryDx=0;entryDy=0;" edge="1" parent="1" target="eFXCQ_QI8-ovq_4J0zuW-5">
          <mxGeometry width="50" height="50" relative="1" as="geometry">
            <mxPoint x="550" y="300" as="sourcePoint" />
            <mxPoint x="300" y="415" as="targetPoint" />
          </mxGeometry>
        </mxCell>
        <mxCell id="eFXCQ_QI8-ovq_4J0zuW-24" value="" style="endArrow=none;html=1;rounded=0;exitX=0;exitY=0.5;exitDx=0;exitDy=0;" edge="1" parent="1" source="eFXCQ_QI8-ovq_4J0zuW-22">
          <mxGeometry width="50" height="50" relative="1" as="geometry">
            <mxPoint x="150" y="330" as="sourcePoint" />
            <mxPoint x="200" y="280" as="targetPoint" />
          </mxGeometry>
        </mxCell>
        <mxCell id="eFXCQ_QI8-ovq_4J0zuW-25" value="" style="endArrow=none;html=1;rounded=0;exitX=1;exitY=0.3333333333333333;exitDx=0;exitDy=0;exitPerimeter=0;entryX=0;entryY=0.5;entryDx=0;entryDy=0;" edge="1" parent="1" source="eFXCQ_QI8-ovq_4J0zuW-1" target="eFXCQ_QI8-ovq_4J0zuW-21">
          <mxGeometry width="50" height="50" relative="1" as="geometry">
            <mxPoint x="210" y="280" as="sourcePoint" />
            <mxPoint x="450" y="340" as="targetPoint" />
          </mxGeometry>
        </mxCell>
        <mxCell id="eFXCQ_QI8-ovq_4J0zuW-26" value="" style="endArrow=none;html=1;rounded=0;" edge="1" parent="1">
          <mxGeometry width="50" height="50" relative="1" as="geometry">
            <mxPoint x="420" y="560" as="sourcePoint" />
            <mxPoint x="550" y="480" as="targetPoint" />
          </mxGeometry>
        </mxCell>
        <mxCell id="eFXCQ_QI8-ovq_4J0zuW-27" value="" style="endArrow=none;html=1;rounded=0;exitX=1;exitY=0.5;exitDx=0;exitDy=0;" edge="1" parent="1" source="eFXCQ_QI8-ovq_4J0zuW-22">
          <mxGeometry width="50" height="50" relative="1" as="geometry">
            <mxPoint x="400" y="390" as="sourcePoint" />
            <mxPoint x="550" y="300" as="targetPoint" />
            <Array as="points" />
          </mxGeometry>
        </mxCell>
      </root>
    </mxGraphModel>
  </diagram>
</mxfile>
